# xmcd CD database file
#
# Track frame offsets:
#	150
#	12465
#	26820
#	38636
#	54141
#	68066
#	93417
#	105671
#	118979
#	131187
#	143808
#	155443
#	233859
#	244903
#	257631
#	272983
#	288775
#	301975
#
# Disc length: 4256 seconds
#
# Revision: 1
# Processed by: cddbd v1.5.2PL0 Copyright (c) Steve Scherf et al.
# Submitted via: CDex 1.51
#
DISCID=00109e12
DTITLE=charlie parker - discovery of jazz - cd 2
DYEAR=1900
DGENRE=Jazz
TTITLE0=Chasin the Bird
TTITLE1=Bird of paradise
TTITLE2=Another hair-do
TTITLE3=Bloomdido
TTITLE4=Cheers
TTITLE5=Confirmation
TTITLE6=Charlies wig
TTITLE7=Cheryl
TTITLE8=Birds Nest
TTITLE9=Blues for Alice
TTITLE10=Bird gets the worm
TTITLE11=Ballad medley
TTITLE12=Constellation
TTITLE13=Blue Bird
TTITLE14=An oscar for Treadwell
TTITLE15=Autum in New York
TTITLE16=Ballade
TTITLE17=Congo Blues
EXTD=
EXTT0=
EXTT1=
EXTT2=
EXTT3=
EXTT4=
EXTT5=
EXTT6=
EXTT7=
EXTT8=
EXTT9=
EXTT10=
EXTT11=
EXTT12=
EXTT13=
EXTT14=
EXTT15=
EXTT16=
EXTT17=
PLAYORDER=
